<?xml version="1.0" encoding="UTF-8"?>
<svg width="16px" height="18px" viewBox="0 0 16 18" version="1.1" xmlns="http://www.w3.org/2000/svg" xmlns:xlink="http://www.w3.org/1999/xlink">
    <title>57A64C11-CCD7-46A4-9EBA-C6CC293B03FF</title>
    <g id="Design" stroke="none" stroke-width="1" fill="none" fill-rule="evenodd">
        <g id="Home-4" transform="translate(-863.000000, -41.000000)" fill="#FFFFFF">
            <g id="Menu" transform="translate(140.000000, 16.000000)">
                <g id="Find-A-Dealer" transform="translate(723.000000, 25.000000)">
                    <path d="M13.6583294,2.33239217 C16.7815411,5.44322836 16.7795732,10.4953333 13.6583294,13.6042094 L10.1258858,17.122656 C8.95160297,18.2922859 7.04872281,18.2926101 5.87411441,17.122656 L2.34167084,13.6042094 C-0.781540811,10.4933733 -0.779572927,5.44126827 2.34167084,2.33239217 C5.46488249,-0.778444022 10.5370856,-0.776483935 13.6583294,2.33239217 Z M3.7558844,3.74100203 C1.41544367,6.07216896 1.41396709,9.86296192 3.7558844,12.1955996 L7.28832797,15.7140461 C7.68177945,16.1059386 8.3183297,16.1058301 8.71167228,15.7140461 L12.2441158,12.1955996 C14.5845566,9.86443265 14.5860332,6.07363969 12.2441158,3.74100203 C9.90367512,1.4098351 6.09780171,1.40836437 3.7558844,3.74100203 Z M8.00000013,5.97622563 C9.10456962,5.97622563 10.0000001,6.86810807 10.0000001,7.9683008 C10.0000001,9.06849354 9.10456962,9.96037597 8.00000013,9.96037597 C6.89543063,9.96037597 6.00000013,9.06849354 6.00000013,7.9683008 C6.00000013,6.86810807 6.89543063,5.97622563 8.00000013,5.97622563 Z" id="Combined-Shape"></path>
                </g>
            </g>
        </g>
    </g>
</svg>