<?xml version="1.0" encoding="UTF-8"?>
<svg width="18px" height="18px" viewBox="0 0 18 18" version="1.1" xmlns="http://www.w3.org/2000/svg" xmlns:xlink="http://www.w3.org/1999/xlink">
    <title>77CFF976-EF9A-44B6-BC33-041C539C8F5E</title>
    <g id="Design" stroke="none" stroke-width="1" fill="none" fill-rule="evenodd">
        <g id="Home-4" transform="translate(-1032.000000, -41.000000)" fill="#FFFFFF">
            <g id="Menu" transform="translate(140.000000, 16.000000)">
                <g id="Search" transform="translate(892.000000, 25.000000)">
                    <path d="M8,0 C12.418278,0 16,3.581722 16,8 C16,9.84820151 15.3732643,11.550021 14.3207287,12.9045228 L17.7071068,16.2928932 C18.0976311,16.6834175 18.0976311,17.3165825 17.7071068,17.7071068 C17.3165825,18.0976311 16.6834175,18.0976311 16.2928932,17.7071068 L16.2928932,17.7071068 L12.9045228,14.3207287 C11.550021,15.3732643 9.84820151,16 8,16 C3.581722,16 0,12.418278 0,8 C0,3.581722 3.581722,0 8,0 Z M8,2 C4.6862915,2 2,4.6862915 2,8 C2,11.3137085 4.6862915,14 8,14 C11.3137085,14 14,11.3137085 14,8 C14,4.6862915 11.3137085,2 8,2 Z" id="Combined-Shape"></path>
                </g>
            </g>
        </g>
    </g>
</svg>