<?xml version="1.0" encoding="UTF-8"?>
<svg width="16px" height="17px" viewBox="0 0 16 17" version="1.1" xmlns="http://www.w3.org/2000/svg" xmlns:xlink="http://www.w3.org/1999/xlink">
    <title>94C0E937-457B-4C80-84D9-EA37FCD5913A</title>
    <g id="Design" stroke="none" stroke-width="1" fill="none" fill-rule="evenodd">
        <g id="Home-4" transform="translate(-1149.000000, -41.000000)" fill="#FFFFFF">
            <g id="Menu" transform="translate(140.000000, 16.000000)">
                <g id="Account" transform="translate(1009.000000, 25.000000)">
                    <path d="M8,0 C10.7614237,0 13,2.23857625 13,5 C13,6.48081228 12.356267,7.81127266 11.3333763,8.72680571 C14.0871152,9.98902401 16,12.7711229 16,16 C16,16.5522847 15.5522847,17 15,17 C14.4477153,17 14,16.5522847 14,16 C14,12.6862915 11.3137085,10 8,10 C4.6862915,10 2,12.6862915 2,16 C2,16.5522847 1.55228475,17 1,17 C0.44771525,17 0,16.5522847 0,16 C0,12.7711229 1.91288484,9.98902401 4.66722394,8.72513389 C3.64373303,7.81127266 3,6.48081228 3,5 C3,2.23857625 5.23857625,0 8,0 Z M8,2 C6.34314575,2 5,3.34314575 5,5 C5,6.65685425 6.34314575,8 8,8 C9.65685425,8 11,6.65685425 11,5 C11,3.34314575 9.65685425,2 8,2 Z" id="Combined-Shape"></path>
                </g>
            </g>
        </g>
    </g>
</svg>